<?xml version="1.0" encoding="utf-8" ?>
<svg xmlns="http://www.w3.org/2000/svg" xmlns:xlink="http://www.w3.org/1999/xlink" width="233" height="233">
	<path fill="#251B25" transform="scale(0.466 0.466)" d="M0 0L500 0L500 500L0 500L0 315.615L0 193.638L0 0ZM39.0232 170.174L38.9692 184.437C34.1043 184.455 3.29182 184.016 1.47281 185.71C-0.205845 187.274 0.390968 191.303 0.0398663 193.414C0.0274714 193.489 0.0132888 193.563 0 193.638L0 315.615C0.265349 316.451 0.515665 317.607 1.01536 318.327C1.4704 318.983 1.97439 319.351 2.7649 319.506C6.27238 320.193 10.468 319.862 14.0564 319.894L37.3751 319.967L82.8633 319.971C92.821 319.963 102.821 320.085 112.772 319.708C114.037 319.66 116.948 319.685 117.947 318.879C118.841 318.158 118.591 311.794 118.591 310.333L118.568 233.739C118.572 218.131 118.701 202.511 118.517 186.904C117.793 186.106 117.01 185.355 116.251 184.59C104.291 184.2 92.2221 184.514 80.25 184.519L80.2539 170.516L53.0606 170.303C53.1584 175.001 52.9269 179.728 53.1876 184.419L47.4301 184.529C47.6027 179.887 47.4749 175.201 47.4786 170.555C44.6471 170.28 41.8651 170.206 39.0232 170.174Z"/>
	<path fill="#151215" transform="scale(0.466 0.466)" d="M433.743 262.91L434.059 262.941C436.651 263.173 440.535 262.647 442.83 263.235C441.888 263.3 437.378 263.221 437.028 263.376C436.82 263.469 436.692 263.683 436.524 263.837L436.43 264.409C437.019 264.726 436.682 264.649 437.351 264.586C439.153 264.416 441.181 264.704 443.002 264.756C441.886 264.945 440.8 264.907 439.684 265.023C437.821 265.044 435.918 265.578 434.131 264.941C433.601 264.226 433.744 263.784 433.743 262.91Z"/>
	<path fill="#8B6B4B" transform="scale(0.466 0.466)" d="M334.553 178.074C335.607 177.943 336.747 178.004 337.796 178.178Q338.327 178.267 338.846 178.409Q339.365 178.551 339.867 178.744Q340.37 178.937 340.85 179.179Q341.331 179.421 341.785 179.71Q342.239 179.999 342.662 180.332Q343.085 180.664 343.473 181.038Q343.86 181.411 344.209 181.821Q344.557 182.231 344.863 182.674C346.179 184.561 346.837 186.846 347.201 189.096C348.552 197.434 347.903 222.195 346.539 230.474C344.745 231.715 343.226 232.372 341.077 232.76C339.791 232.793 338.561 232.662 337.32 232.311C334.155 231.418 331.682 229.379 330.07 226.527C328.924 224.498 328.274 222.207 327.934 219.911C326.899 212.924 326.581 186.887 328.397 180.457C330.294 179.042 332.262 178.446 334.553 178.074Z"/>
	<path fill="#8B6B4B" transform="scale(0.466 0.466)" d="M277.198 247.871C283.918 247.835 290.709 247.984 297.406 248.541C297.908 250.068 298.251 251.583 298.317 253.192C298.422 255.742 297.796 258.22 295.984 260.09C292.151 264.043 283.843 262.952 278.723 262.954L278.723 268.718C283.328 268.179 289.134 268.25 293.577 269.445C294.178 270.946 294.592 272.477 294.702 274.096C294.867 276.5 294.323 278.964 292.683 280.795C290.794 282.904 288.427 283.23 285.772 283.433C283.432 283.437 281.092 283.473 278.757 283.285Q278.747 289.101 278.661 294.917C276.519 295.875 274.525 296.467 272.153 296.367C269.285 296.245 266.271 295.088 264.357 292.89C262.94 291.263 262.306 289.261 261.919 287.178C261.238 283.509 261.384 279.557 261.371 275.837Q261.357 262.067 262.312 248.331Q269.749 247.917 277.198 247.871Z"/>
	<path fill="#8B6B4B" transform="scale(0.466 0.466)" d="M290.802 178.615C300.822 178.301 310.881 178.712 320.907 178.61C321.827 180.59 322.475 182.403 322.677 184.592C322.957 187.645 322.3 190.837 320.247 193.198C317.423 196.447 313.438 196.623 309.463 196.823Q309.673 202.51 309.591 208.201C309.538 212.793 309.652 226.377 308.383 229.98C308.231 230.412 307.945 230.689 307.625 231.002C306.137 232.007 304.442 232.65 302.639 232.741C299.583 232.896 296.39 231.576 294.225 229.449C292.312 227.569 291.102 225.111 290.389 222.55C288.557 215.976 289.056 203.882 289.045 196.717C285.342 196.887 281.761 196.789 278.079 196.422C277.008 194.562 276.424 192.661 276.316 190.508C276.161 187.391 277.07 183.971 279.242 181.668C282.244 178.484 286.785 178.711 290.802 178.615Z"/>
	<path fill="#8B6B4B" transform="scale(0.466 0.466)" d="M475.259 246.843C478.853 246.17 483.83 246.787 487.261 247.969C490.239 248.996 493.106 250.995 494.434 253.935C495.175 255.576 495.342 257.329 494.693 259.026C493.678 261.678 491.394 263.349 488.899 264.463C486.315 262.146 483.043 260.832 479.553 260.929C478.216 260.966 475.293 261.32 474.445 262.547C474.218 262.876 474.052 263.181 474.108 263.584C474.203 264.276 474.638 264.842 475.272 265.132C476.628 265.753 478.258 265.912 479.714 266.157C484.375 266.942 488.954 267.705 492.611 270.94C495.416 273.422 497.06 276.787 497.203 280.533C497.348 284.362 495.816 288.676 493.228 291.506C489.124 295.994 483.53 296.806 477.728 297.092C471.972 297.453 463.662 296.4 459.186 292.361C457.586 290.917 456.657 288.994 456.635 286.829C456.613 284.669 457.481 282.436 459.054 280.939C463.991 276.239 470.243 282.836 475.785 282.845C476.923 282.847 478.079 282.571 478.862 281.693C479.475 281.006 479.548 280.269 479.468 279.392C478.385 277.958 472.348 277.571 470.355 276.93Q468.789 276.435 467.326 275.69Q465.862 274.946 464.539 273.973Q463.924 273.522 463.356 273.012Q462.789 272.502 462.275 271.938Q461.762 271.374 461.307 270.761Q460.852 270.149 460.46 269.494Q460.069 268.839 459.745 268.149Q459.421 267.458 459.167 266.738Q458.913 266.019 458.733 265.278Q458.552 264.537 458.446 263.781C457.948 260.286 459.33 256.307 461.468 253.542C464.861 249.152 469.984 247.581 475.259 246.843Z"/>
	<path fill="#8B6B4B" transform="scale(0.466 0.466)" d="M180.172 247.861C189.552 247.379 199.667 247.442 208.996 248.367C209.665 250.903 210.132 253.496 209.523 256.103C207.775 263.597 199.532 262.861 193.586 262.803C192.476 262.792 191.315 262.547 190.353 263.121C190.077 263.715 190.074 263.98 190.179 264.623C190.587 265.17 190.64 265.202 191.362 265.267C192.674 265.386 194.072 265.121 195.395 265.102C198.563 265.054 201.887 265.293 204.978 265.975C205.976 268.27 206.678 271.274 205.97 273.722C203.962 280.655 193.273 277.132 190.377 278.621C190.273 278.855 190.15 279.097 190.115 279.355C190.026 280.028 190.294 280.47 190.682 280.976C191.867 281.651 193.525 281.329 194.869 281.29L206.888 281.318C207.907 283.264 208.713 285.177 208.728 287.427C208.743 289.635 207.867 291.647 206.244 293.142C201.61 297.409 190.425 296.536 184.511 296.289C181.605 296.168 178.034 295.794 176.003 293.47C174.699 291.977 173.973 290.056 173.601 288.131C172.755 283.744 172.984 278.907 172.988 274.447Q172.925 261.34 173.851 248.266C175.938 248.001 178.071 247.967 180.172 247.861Z"/>
	<path fill="#8B6B4B" transform="scale(0.466 0.466)" d="M417.315 248.275C427.153 247.343 442.885 247.277 452.504 248.4C452.793 249.509 453.095 250.622 453.209 251.765C453.469 254.367 453.173 257.457 451.435 259.523C447.462 264.244 439.448 262.416 433.985 262.887L433.743 262.91C433.744 263.784 433.601 264.226 434.131 264.941C435.918 265.578 437.821 265.044 439.684 265.023C442.721 265.521 445.698 265.082 448.669 266.175C449.232 267.79 449.72 269.401 449.74 271.129C449.763 273.026 449.154 274.82 447.758 276.14C444.309 279.402 439.469 278.096 435.304 278.211C434.599 278.231 434.367 278.443 433.902 278.936C433.702 279.682 433.687 280.221 433.758 280.988C434.659 281.709 448.076 281.285 450.47 281.381C451.462 283.266 452.215 285.349 452.191 287.505C452.168 289.691 451.29 291.704 449.683 293.188C445.272 297.262 435.302 296.551 429.636 296.35C426.343 296.233 421.802 296.076 419.455 293.412C418.26 292.057 417.556 290.412 417.18 288.659C416.216 284.163 416.473 279.3 416.479 274.718Q416.406 261.481 417.315 248.275Z"/>
	<path fill="#8B6B4B" transform="scale(0.466 0.466)" d="M142.279 246.605C145.727 246.111 149.927 246.469 153.325 247.111C158.011 247.995 162.495 249.832 165.232 253.943C168.125 258.288 168.85 263.965 167.761 269.007C166.822 273.351 164.458 277.204 160.679 279.618C155.772 282.752 150.295 283.013 144.742 281.806C144.749 284.238 144.693 286.674 144.666 289.107C144.572 291.288 144.513 293.46 144.151 295.616C142.066 297.178 139.637 298.056 137.009 297.755C134.174 297.431 131.431 295.779 129.679 293.55C128.234 291.711 127.608 289.474 127.191 287.21C126.593 283.967 126.648 280.513 126.575 277.221C126.381 268.4 126.494 259.481 127.616 250.721C131.804 247.802 137.323 247.092 142.279 246.605Z"/>
	<path fill="#151215" transform="scale(0.466 0.466)" d="M147.491 262.276C147.801 262.277 147.774 262.271 148.144 262.306C149.549 262.442 150.828 262.937 151.688 264.109C152.157 264.748 152.356 265.504 152.144 266.289C151.866 267.322 151.204 267.882 150.339 268.432C149.287 268.523 147.945 268.782 146.919 268.592C146.386 268.493 146.187 268.342 145.935 267.853C145.425 266.867 145.743 264.436 146.074 263.428C146.318 262.685 146.846 262.572 147.491 262.276Z"/>
	<path fill="#8B6B4B" transform="scale(0.466 0.466)" d="M310.136 247.591C310.205 247.583 310.274 247.57 310.344 247.566C313.245 247.393 316.908 247.773 319.169 249.74C320.369 250.784 321.151 252.18 321.504 253.724C322.172 256.645 321.812 260.084 321.841 263.074Q321.908 269.985 322.23 276.888C322.325 278.854 322.552 281.048 324.159 282.406C324.876 283.013 325.924 283.489 326.881 283.375C327.823 283.263 328.702 282.598 329.26 281.855C332.281 277.83 331.237 255.963 330.394 250.524C332.793 249.039 335.284 248.097 338.121 247.984C341.118 247.864 344.361 248.645 346.574 250.759C350.453 254.466 350.124 262.51 350.12 267.563C349.806 274.077 349.981 282.317 346.152 287.901C342.793 292.801 337.434 295.69 331.67 296.743C325.004 297.961 316.151 297.423 310.435 293.417C306.19 290.443 304.12 285.751 303.287 280.758C301.992 273.004 302.636 265.39 303.187 257.621C303.346 255.372 302.995 251.404 304.407 249.591C305.701 247.929 308.214 247.849 310.136 247.591Z"/>
	<path fill="#8B6B4B" transform="scale(0.466 0.466)" d="M187.285 177.589C190.776 177.1 194.56 177.428 197.98 178.236C200.933 178.933 207.508 180.565 209.13 183.396C209.983 184.883 209.583 187.149 209.138 188.709Q208.928 189.46 208.606 190.17Q208.283 190.88 207.856 191.532Q207.428 192.184 206.906 192.763Q206.383 193.342 205.778 193.834C199.754 198.683 193.131 192.849 186.969 196.33C184.84 197.533 183.661 199.611 183.038 201.912C182.259 204.789 182.482 208.17 184.032 210.76C185.183 212.681 186.614 213.785 188.76 214.33C194.656 215.828 199.154 213.15 204.022 210.22C206.699 211.403 208.841 212.934 210.167 215.629C211.637 218.617 211.311 221.293 210.246 224.296C209.936 224.835 209.621 225.378 209.263 225.888C206.635 229.637 202.105 231.801 197.687 232.524C189.523 233.86 179.537 232.84 172.678 227.878C166.851 223.661 163.796 217.1 162.699 210.131C161.538 202.757 162.839 194.868 167.354 188.786C172.089 182.406 179.561 178.747 187.285 177.589Z"/>
	<path fill="#8B6B4B" transform="scale(0.466 0.466)" d="M231.297 246.864C232.809 246.847 234.314 246.855 235.822 246.974C241.812 247.443 247.825 249.13 251.813 253.901C254.788 257.459 256.399 262.125 255.963 266.769C255.484 271.862 252.458 275.124 248.697 278.229C252.076 281.64 254.648 286.153 256.877 290.374C256.153 292.533 255.297 294.375 253.384 295.753C251.544 297.078 249.212 297.488 246.998 297.125C242.914 296.454 240.356 293.822 238.045 290.64C235.78 287.317 233.767 283.835 231.449 280.541C231.503 285.061 231.118 289.532 230.632 294.021C229.141 295.166 227.655 295.972 225.754 296.169C223.082 296.445 220.436 295.466 218.388 293.782C214.942 290.949 214.026 287.041 213.62 282.804C213.162 278.024 212.272 253.382 214.593 250.882C217.576 247.67 227.049 247.085 231.297 246.864Z"/>
	<path fill="#151215" transform="scale(0.466 0.466)" d="M233.729 262.759Q234.168 262.751 234.607 262.757C236.003 262.785 237.053 263.232 238.008 264.278C238.483 264.798 238.799 265.501 238.646 266.219C238.442 267.175 237.708 267.693 236.924 268.156C236.032 268.292 234.787 268.574 233.886 268.453C233.217 268.364 232.501 267.846 232.18 267.26C231.658 266.307 232.077 264.979 232.405 264.009C232.687 263.174 232.939 263.115 233.729 262.759Z"/>
	<path fill="#8B6B4B" transform="scale(0.466 0.466)" d="M368.867 178.373C377.775 178.238 386.7 178.411 395.608 178.514C397.118 181.256 397.996 183.841 397.716 187.006C397.525 189.163 396.798 191.209 395.721 193.077C391.99 199.548 381.647 209.094 375.798 214.003C383.565 213.962 391.206 213.714 398.95 214.548Q399.487 216.041 399.819 217.592Q399.942 218.191 400.004 218.799Q400.067 219.408 400.068 220.019Q400.069 220.631 400.009 221.239Q399.948 221.848 399.827 222.447Q399.706 223.047 399.526 223.631Q399.345 224.215 399.107 224.778Q398.869 225.342 398.575 225.878Q398.282 226.415 397.936 226.919C395.81 230.023 392.893 231.367 389.301 231.963Q384.164 232.251 379.018 232.249C372.423 232.269 362.12 233.208 357.11 227.999C354.998 225.803 354.25 222.844 354.294 219.87C354.443 209.831 364.456 201.803 371.14 195.426C370.73 195.474 370.323 195.515 369.911 195.54C367.065 195.716 356.092 196.79 354.289 195.03C353.268 194.034 353.105 192.097 353.042 190.755C352.873 187.217 353.685 183.764 356.173 181.107C359.186 177.89 364.84 178.438 368.867 178.373Z"/>
	<path fill="#8B6B4B" transform="scale(0.466 0.466)" d="M425.66 177.861C429.615 177.828 433.848 178.587 437.188 180.809C439.416 182.292 441.1 184.321 442.409 186.639C447.044 194.844 452.144 216.434 454.184 226.431C453.023 228.815 451.315 230.304 448.928 231.443C446.066 232.808 442.598 233.24 439.592 232.117C435.687 230.659 434.514 227.651 432.86 224.208C432.175 223.74 431.737 223.879 430.921 223.892L422.309 223.826C421.298 226.407 420.516 229.104 419.655 231.739C415.893 232.762 411.768 233.621 408.065 231.875C405.564 230.697 403.936 228.558 403.028 225.989C402.031 223.172 402.085 219.97 402.442 217.042C403.579 207.705 410.057 188.386 414.25 179.936C417.973 178.679 421.751 178.132 425.66 177.861Z"/>
	<path fill="#151215" transform="scale(0.466 0.466)" d="M427.404 195.648C428.629 196.726 430.409 206.323 430.924 208.513L428.55 208.53L424.408 208.518C425.52 204.261 426.354 199.923 427.404 195.648Z"/>
	<path fill="#8B6B4B" transform="scale(0.466 0.466)" d="M366.155 248.066C368.986 247.824 371.795 248.029 374.284 249.557Q374.855 249.913 375.376 250.339Q375.897 250.766 376.359 251.255Q376.82 251.745 377.215 252.29Q377.61 252.836 377.931 253.427C380.401 257.867 382.201 268.799 383.475 274.163C384.685 268.827 387.375 254.347 389.439 250.367C391.121 249.547 392.779 248.857 394.635 248.545C397.708 248.028 400.914 248.539 403.438 250.449C405.325 251.876 406.677 253.883 407.472 256.096C408.962 260.246 409.086 265.297 409.596 269.654C410.505 277.442 411.294 285.259 412.379 293.024C410.288 295.211 407.945 296.817 404.831 297.055C402.579 297.227 400.103 296.666 398.432 295.071C395.563 292.332 395.715 287.751 395.548 284.08Q395.441 278.849 395.697 273.623C394.693 276.131 394.202 278.845 393.591 281.469C392.546 285.95 391.551 290.446 390.365 294.892Q388.797 295.573 387.131 295.953C384.276 296.616 381.108 296.629 378.586 294.949C377.324 294.108 376.373 292.909 375.727 291.544C373.823 287.521 372.426 278.734 371.368 273.923C370.687 280.993 370.387 288.104 369.933 295.193C367.154 296.379 364.151 297.423 361.077 296.939C359.067 296.623 357.392 295.534 356.254 293.852C354.958 291.936 354.423 289.51 354.372 287.218C354.242 281.417 356.104 274.937 357.158 269.234C358.338 262.852 359.284 256.421 360.593 250.064C362.425 248.955 364.061 248.431 366.155 248.066Z"/>
	<path fill="#8B6B4B" transform="scale(0.466 0.466)" d="M54.4379 120.582C60.9121 119.674 69.7075 120.838 75.7952 123.276C81.2815 125.474 86.5047 129.442 88.8284 135.017C90.4137 138.82 90.7578 142.771 89.1442 146.641C87.028 151.716 82.4467 155.359 77.4703 157.451C77.5232 160.63 77.5039 163.814 77.5196 166.995L58.0625 166.907L53.2261 166.946L53.2617 160.315L48.0129 160.231L48.0075 167.014Q44.8061 166.873 41.6017 166.908C41.7088 163.877 41.5494 160.856 41.7484 157.821Q39.55 157.08 37.653 155.745C33.7497 153.051 29.8946 148.702 29.1039 143.877C28.3727 139.415 29.8012 134.877 32.3813 131.243C37.4199 124.147 46.325 121.909 54.4379 120.582Z"/>
	<path fill="#251B25" transform="scale(0.466 0.466)" d="M48.3328 126.735L48.5741 126.812C49.1182 127.516 48.982 128.636 49.0286 129.526C47.7522 130.222 46.4166 130.896 45.2289 131.737C42.5156 133.657 40.5388 136.358 40.0056 139.696C39.4946 142.895 40.5611 146.554 43.0384 148.739C43.863 149.466 44.9096 149.98 45.5695 150.869C44.8874 151.117 43.9587 150.769 43.2712 150.607C43.175 150.574 43.0777 150.543 42.9825 150.506C40.2458 149.446 38.1398 147.507 37.0217 144.774C35.7374 141.636 35.9764 137.964 37.3916 134.913C39.643 130.059 43.6236 128.419 48.3328 126.735Z"/>
	<path fill="#8B6B4B" transform="scale(0.466 0.466)" d="M239.915 177.401Q240.602 177.329 241.291 177.291Q241.981 177.253 242.672 177.249Q243.362 177.245 244.052 177.275Q244.742 177.305 245.43 177.368Q246.117 177.432 246.801 177.529Q247.485 177.626 248.163 177.756Q248.841 177.887 249.512 178.05Q250.183 178.214 250.845 178.41Q251.507 178.606 252.159 178.835Q252.811 179.063 253.45 179.323Q254.09 179.583 254.716 179.874Q255.343 180.165 255.954 180.487Q256.565 180.808 257.16 181.159Q257.755 181.51 258.332 181.89Q258.908 182.269 259.466 182.677Q260.024 183.084 260.561 183.519Q261.097 183.953 261.612 184.413Q262.128 184.873 262.619 185.358Q263.111 185.842 263.579 186.351Q264.046 186.859 264.488 187.39Q264.93 187.92 265.346 188.472Q265.762 189.023 266.15 189.594Q266.538 190.166 266.897 190.755Q267.257 191.345 267.587 191.951Q267.917 192.558 268.218 193.18Q268.518 193.802 268.787 194.438Q269.057 195.073 269.294 195.722Q269.532 196.37 269.738 197.029Q269.944 197.689 270.117 198.357Q270.291 199.025 270.431 199.702Q270.571 200.378 270.678 201.06Q270.785 201.742 270.859 202.429Q270.932 203.116 270.972 203.805Q271.012 204.495 271.018 205.185Q271.024 205.876 270.996 206.566Q270.968 207.256 270.907 207.944Q270.845 208.631 270.75 209.315Q270.655 209.999 270.526 210.678Q270.397 211.356 270.236 212.028Q270.074 212.699 269.88 213.362Q269.685 214.025 269.459 214.677Q269.232 215.329 268.974 215.97Q268.715 216.61 268.426 217.237Q268.137 217.864 267.817 218.476Q267.497 219.089 267.148 219.684Q266.798 220.28 266.42 220.858Q266.042 221.436 265.636 221.994Q265.23 222.553 264.798 223.091Q264.365 223.629 263.906 224.146Q263.447 224.662 262.964 225.155Q262.481 225.648 261.974 226.117Q261.467 226.586 260.937 227.03Q260.408 227.473 259.857 227.89Q259.307 228.307 258.737 228.697Q258.167 229.086 257.578 229.448Q256.989 229.809 256.384 230.141Q255.778 230.473 255.157 230.775Q254.536 231.076 253.901 231.347Q253.266 231.619 252.618 231.858Q251.97 232.098 251.312 232.305Q250.653 232.513 249.985 232.688Q249.317 232.863 248.641 233.006Q247.965 233.148 247.283 233.257Q246.601 233.366 245.915 233.441Q245.226 233.517 244.534 233.558Q243.843 233.6 243.15 233.608Q242.457 233.615 241.764 233.589Q241.072 233.562 240.382 233.502Q239.691 233.442 239.005 233.347Q238.318 233.253 237.637 233.125Q236.956 232.997 236.282 232.836Q235.608 232.675 234.943 232.48Q234.278 232.286 233.623 232.06Q232.968 231.833 232.325 231.574Q231.682 231.316 231.053 231.026Q230.423 230.736 229.809 230.416Q229.194 230.095 228.596 229.745Q227.998 229.395 227.418 229.016Q226.838 228.636 226.278 228.229Q225.717 227.822 225.177 227.388Q224.637 226.953 224.119 226.493Q223.601 226.033 223.106 225.547Q222.612 225.062 222.141 224.553Q221.671 224.044 221.226 223.513Q220.782 222.981 220.364 222.428Q219.946 221.876 219.555 221.303Q219.165 220.731 218.803 220.14Q218.441 219.548 218.109 218.94Q217.777 218.332 217.475 217.708Q217.173 217.085 216.902 216.447Q216.631 215.809 216.392 215.159Q216.153 214.508 215.945 213.847Q215.739 213.186 215.564 212.515Q215.39 211.844 215.249 211.166Q215.108 210.487 215 209.803Q214.893 209.118 214.819 208.429Q214.745 207.74 214.705 207.048Q214.666 206.356 214.66 205.663Q214.654 204.97 214.682 204.278Q214.711 203.586 214.773 202.895Q214.835 202.205 214.931 201.519Q215.028 200.833 215.157 200.152Q215.287 199.471 215.45 198.798Q215.613 198.124 215.809 197.46Q216.005 196.795 216.234 196.141Q216.462 195.486 216.722 194.844Q216.983 194.202 217.274 193.573Q217.566 192.945 217.888 192.331Q218.21 191.717 218.562 191.12Q218.914 190.523 219.294 189.944Q219.675 189.365 220.084 188.806Q220.493 188.246 220.929 187.707Q221.364 187.169 221.826 186.652Q222.288 186.135 222.774 185.642Q223.261 185.148 223.771 184.68Q224.282 184.211 224.814 183.767Q225.347 183.324 225.901 182.908Q226.455 182.491 227.028 182.102Q227.602 181.713 228.194 181.353Q228.786 180.993 229.395 180.663Q230.004 180.332 230.629 180.032Q231.253 179.731 231.892 179.462Q232.53 179.193 233.181 178.956Q233.832 178.718 234.494 178.513Q235.156 178.308 235.827 178.135Q236.498 177.963 237.177 177.824Q237.856 177.684 238.541 177.579Q239.226 177.473 239.915 177.401Z"/>
	<path fill="#151215" transform="scale(0.466 0.466)" d="M242.516 196.582C243.532 196.653 244.454 196.772 245.381 197.224C247.373 198.194 248.695 200.017 249.306 202.115C250.122 204.913 249.814 208.525 248.29 211.039C246.983 213.195 245.426 214.002 243.067 214.549C241.753 214.412 240.593 214.205 239.47 213.469C237.577 212.228 236.455 210.129 236.005 207.956C235.433 205.198 235.747 201.968 237.386 199.609C238.688 197.735 240.315 196.937 242.516 196.582Z"/>
	<path fill="#8B6B4B" transform="scale(0.466 0.466)" d="M39.0232 170.174C41.8651 170.206 44.6471 170.28 47.4786 170.555C47.4749 175.201 47.6027 179.887 47.4301 184.529L53.1876 184.419C52.9269 179.728 53.1584 175.001 53.0606 170.303L80.2539 170.516L80.25 184.519C92.2221 184.514 104.291 184.2 116.251 184.59C117.01 185.355 117.793 186.106 118.517 186.904C118.701 202.511 118.572 218.131 118.568 233.739L118.591 310.333C118.591 311.794 118.841 318.158 117.947 318.879C116.948 319.685 114.037 319.66 112.772 319.708C102.821 320.085 92.821 319.963 82.8633 319.971L37.3751 319.967L14.0564 319.894C10.468 319.862 6.27238 320.193 2.7649 319.506C1.97439 319.351 1.4704 318.983 1.01536 318.327C0.515665 317.607 0.265349 316.451 0 315.615L0 193.638C0.0132888 193.563 0.0274714 193.489 0.0398663 193.414C0.390968 191.303 -0.205845 187.274 1.47281 185.71C3.29182 184.016 34.1043 184.455 38.9692 184.437L39.0232 170.174ZM61.6304 192.425C61.5998 194.127 61.55 195.822 61.6783 197.522L65.9521 197.494C65.9484 203.296 65.8638 209.11 65.9583 214.91C64.3828 214.865 62.8173 214.837 61.2413 214.876L61.2512 260.517C61.2477 268.571 61.6463 276.859 61.0847 284.883C61.0023 286.061 60.8703 287.091 60.2719 288.132C59.7923 288.461 59.797 288.409 59.2134 288.318C58.2642 287.527 58.1806 287.019 58.064 285.812C57.8063 283.146 57.9091 280.378 57.8727 277.7Q57.7688 269.417 57.7935 261.133L57.7862 214.804L53.0519 214.775L53.0063 197.503L57.5787 197.473C57.5844 195.804 57.6075 194.133 57.5437 192.464L8.75823 192.495L8.65356 311.498L110.06 311.512L110.057 206.625L110.06 192.446C93.9298 192.493 77.7568 192.68 61.6304 192.425Z"/>
	<path fill="#251B25" transform="scale(0.466 0.466)" d="M61.6304 192.425C77.7568 192.68 93.9298 192.493 110.06 192.446L110.057 206.625L110.06 311.512L8.65356 311.498L8.75823 192.495L57.5437 192.464C57.6075 194.133 57.5844 195.804 57.5787 197.473L53.0063 197.503L53.0519 214.775L57.7862 214.804L57.7935 261.133Q57.7687 269.417 57.8727 277.7C57.9091 280.378 57.8063 283.146 58.064 285.812C58.1806 287.019 58.2642 287.527 59.2134 288.318C59.797 288.409 59.7923 288.461 60.2719 288.132C60.8703 287.091 61.0023 286.061 61.0847 284.883C61.6463 276.859 61.2477 268.571 61.2512 260.517L61.2413 214.876C62.8173 214.837 64.3828 214.865 65.9583 214.91C65.8638 209.11 65.9484 203.296 65.9521 197.494L61.6783 197.522C61.55 195.822 61.5998 194.127 61.6304 192.425ZM20.9763 267.593Q20.9377 272.391 21.0276 277.189C21.2746 279.259 20.6964 284.918 21.5388 286.342C21.8624 286.068 22.2268 285.87 22.3791 285.458C22.7524 284.448 22.555 263.695 22.2227 262.852C22.2266 264.202 22.2709 265.415 22.0888 266.765C22.0907 266.121 22.074 265.484 22.0471 264.842L21.925 264.905L21.6002 266.746C21.4958 265.654 21.6329 263.496 21.1754 262.601C21.1444 264.27 21.0976 265.928 20.9763 267.593Z"/>
	<path fill="#151215" fill-opacity="0.98823529" transform="scale(0.466 0.466)" d="M20.9763 267.593C21.0976 265.928 21.1444 264.27 21.1754 262.601C21.6329 263.496 21.4958 265.654 21.6002 266.746L21.925 264.905L22.0471 264.842C22.074 265.484 22.0907 266.121 22.0888 266.765C22.2709 265.415 22.2266 264.202 22.2227 262.852C22.555 263.695 22.7524 284.448 22.3791 285.458C22.2268 285.87 21.8624 286.068 21.5388 286.342C20.6964 284.918 21.2746 279.259 21.0276 277.189Q20.9377 272.391 20.9763 267.593Z"/>
	<path fill="#8B6B4B" transform="scale(0.466 0.466)" d="M70.0441 197.62C77.1002 197.322 84.2145 197.502 91.2779 197.502C94.8906 197.502 98.8319 197.131 102.396 197.516C103.49 197.634 104.337 197.96 105.179 198.663C105.447 199.33 105.502 199.36 105.307 200.043C104.694 200.623 104.288 200.941 103.477 201.194C94.043 201.312 84.5785 201.279 75.1438 201.21C73.2382 201.196 69.4296 201.449 68.0378 200.035C67.9493 199.477 67.8196 198.924 68.2212 198.447C68.7704 197.794 69.275 197.782 70.0441 197.62Z"/>
	<path fill="#8B6B4B" transform="scale(0.466 0.466)" d="M15.1935 197.614Q16.4765 197.565 17.76 197.535C24.421 197.384 31.1112 197.504 37.7751 197.511C41.2986 197.514 45.1831 197.198 48.6588 197.627C49.3746 197.715 49.8201 197.945 50.3442 198.446C50.569 199.083 50.6792 199.297 50.4372 199.968C50.188 200.66 49.604 200.97 48.9695 201.219L28.5735 201.197C24.584 201.212 20.3278 201.507 16.3705 201.081C15.2414 200.959 14.0491 200.752 13.2879 199.841C13.1725 199.242 13.16 198.784 13.539 198.254C13.972 197.649 14.5184 197.719 15.1935 197.614Z"/>
	<path fill="#8B6B4B" transform="scale(0.466 0.466)" d="M93.3592 248.308C94.1532 248.391 94.734 248.483 95.4521 248.841C95.8374 249.368 95.9036 249.454 95.9689 250.101C96.2277 252.661 96.0879 255.331 96.0904 257.907L96.0947 271.807L96.0865 283.888C96.0833 285.866 96.2308 288.04 95.9933 289.999C95.9008 290.762 95.5283 291.056 95.0595 291.63C94.8283 291.675 94.7461 291.698 94.4875 291.714C93.7664 291.758 93.5319 291.703 92.9948 291.231C92.3673 289.408 92.533 251.416 93.3592 248.308Z"/>
	<path fill="#8B6B4B" transform="scale(0.466 0.466)" d="M24.0306 248.079C24.8752 248.457 25.5335 249.097 26.2295 249.694C26.3946 257.66 26.2368 265.66 26.2221 273.63C26.2125 278.892 26.5689 284.494 25.9209 289.705C25.8159 290.549 25.6313 291.161 25.235 291.912C24.7841 291.714 24.2851 291.522 23.8713 291.256C23.2095 290.829 23.0601 290.248 22.9584 289.508C22.268 284.484 22.7036 276.598 22.7049 271.324C22.7063 265.235 22.202 255.781 23.0622 250.158C23.1925 249.306 23.5065 248.751 24.0306 248.079Z"/>
	<path fill="#8B6B4B" transform="scale(0.466 0.466)" d="M20.8447 305.084C26.5718 304.579 32.6067 304.945 38.3696 304.942L71.9036 304.922L91.8431 304.92C94.1404 304.921 97.4345 304.503 99.6143 305.035C100.165 305.169 100.832 305.66 101.065 306.209C101.341 306.862 101.274 307.01 101.026 307.622C100.317 308.14 99.4519 308.109 98.6068 308.187Q96.8892 308.241 95.1708 308.25L46.3897 308.297L30.1226 308.276C27.0298 308.269 23.8573 308.402 20.7758 308.153C19.6735 308.064 18.3675 307.975 17.5574 307.178C17.5626 306.764 17.4704 306.451 17.7363 306.105C18.4392 305.189 19.7915 305.193 20.8447 305.084Z"/>
	<path fill="#8B6B4B" transform="scale(0.466 0.466)" d="M21.054 291.428L21.232 291.693C22.2775 293.218 23.8823 294.878 25.8072 295.165C28.4767 295.563 31.4491 295.338 34.1518 295.351L50.8283 295.419L77.9702 295.455C82.6366 295.436 87.571 295.675 92.201 295.207C93.6159 295.064 95.0223 294.642 96.1447 293.739C97.5457 292.613 97.9148 291.434 98.1637 289.689C98.7733 285.416 98.2812 277.323 98.2713 272.681C98.2401 258.05 97.7959 243.083 99.8034 228.565C100.324 224.797 102.848 211.336 105.391 209.407L105.777 209.462C105.852 209.661 105.906 209.77 105.916 210.003C105.965 211.048 105.724 212.242 105.653 213.295Q105.451 216.608 105.393 219.926Q105.193 231.929 105.211 243.933L105.08 275.163C105.072 280.538 105.545 286.703 104.878 292.001C104.608 294.145 103.593 296.112 102.083 297.653C99.0919 300.705 94.7877 300.614 90.8126 300.687C74.8549 300.981 58.8498 300.72 42.8883 300.633Q36.5179 300.586 30.1475 300.617C27.6228 300.627 24.8778 300.845 22.3854 300.465C20.2981 300.147 18.4052 299.25 16.9122 297.743Q16.3288 297.16 15.8489 296.49Q15.3691 295.82 15.0058 295.079Q14.6426 294.339 14.4058 293.55Q14.1691 292.76 14.0652 291.942C13.6455 288.777 13.9784 285.225 13.9818 282.015L13.8985 263.296L13.1726 209.966L12.6968 209.842L13.1998 209.734L13.193 209.535L13.3432 209.399C15.5531 211.492 16.4949 215.655 17.1979 218.507C20.1058 230.303 20.4676 241.933 20.6572 254.009C20.7261 258.396 20.5301 262.918 20.9443 267.283L20.9763 267.593Q20.9377 272.391 21.0276 277.189C20.72 281.845 20.9243 286.757 21.054 291.428Z"/>
</svg>
