<?xml version="1.0" encoding="utf-8" ?>
<svg xmlns="http://www.w3.org/2000/svg" xmlns:xlink="http://www.w3.org/1999/xlink" width="233" height="233">
	<path fill="#ADACAB" fill-opacity="0.011764706" transform="matrix(0.466 0 0 0.466 0 3.05176e-05)" d="M284.006 196.987C285.668 196.853 287.321 196.85 288.987 196.847Q289.063 201.376 288.996 205.905C288.666 205.578 288.614 205.452 288.508 204.976C288.477 204.836 288.457 204.694 288.431 204.553C288.322 205.156 288.179 205.752 288.044 206.349L287.875 206.338C287.383 203.348 286.031 200.666 285.448 197.723C285.431 197.636 285.416 197.548 285.4 197.461C284.945 197.419 284.585 197.431 284.198 197.156C284.129 197.106 284.07 197.043 284.006 196.987Z"/>
	<path fill="#979796" fill-opacity="0.14901961" transform="matrix(0.466 0 0 0.466 0 3.05176e-05)" d="M470.179 277.12C472.771 277.693 476.805 278.021 479.1 279.062C479.345 279.884 479.174 280.602 479.04 281.427C478.855 281.001 478.9 280.888 478.474 280.659C478.209 280.8 477.951 280.933 477.675 281.05C476.361 281.61 474.534 281.878 473.181 281.337C472.037 280.88 470.746 280.437 470.228 279.263C470.387 278.724 470.677 278.468 471.068 278.09L471.23 277.936L471.188 277.679C470.768 277.525 470.537 277.376 470.179 277.12Z"/>
	<path transform="matrix(0.466 0 0 0.466 0 3.05176e-05)" d="M334.333 178.057C335.707 177.926 337.126 177.972 338.469 178.304C341.494 179.054 343.896 181.025 345.484 183.673C346.571 185.486 347.075 187.579 347.35 189.658C348.273 196.657 348.108 224.193 346.435 230.666C344.768 231.799 343.347 232.367 341.397 232.76C340.28 232.802 339.152 232.78 338.054 232.548C334.806 231.863 332.241 229.982 330.429 227.227C329.152 225.285 328.412 222.986 328.009 220.712C326.716 213.431 326.747 187.563 328.289 180.556C330.099 179.056 332.088 178.491 334.333 178.057Z"/>
	<path transform="matrix(0.466 0 0 0.466 0 3.05176e-05)" d="M267.824 248.105C271.424 247.823 275.146 247.929 278.762 247.91C284.824 247.879 291.493 247.66 297.48 248.643C298.044 250.306 298.379 251.959 298.376 253.717C298.372 256.209 297.604 258.615 295.768 260.362C291.853 264.087 283.805 263.027 278.753 262.95C278.816 264.8 278.775 266.66 278.771 268.511C281.547 268.496 291.302 267.977 293.295 269.469C293.904 269.924 294.125 270.651 294.282 271.363C295.077 274.963 294.835 277.734 292.784 280.852C289.127 284.365 283.413 283.503 278.764 283.434C278.837 287.292 278.882 291.216 278.555 295.062C276.327 296.01 274.019 296.578 271.585 296.429C268.874 296.263 266.384 295.137 264.585 293.082C263.195 291.494 262.353 289.55 261.923 287.5C261.16 283.853 261.347 279.808 261.333 276.095Q261.173 262.164 262.416 248.287C264.221 248.317 266.021 248.201 267.824 248.105Z"/>
	<path transform="matrix(0.466 0 0 0.466 0 3.05176e-05)" d="M277.885 196.4C276.283 192.776 275.683 189.039 277.086 185.231C278.004 182.739 279.77 180.692 282.241 179.659C287.962 177.265 312.836 178.991 320.813 178.599C322.58 182.018 323.414 185.775 322.262 189.564C321.486 192.115 319.764 194.263 317.376 195.474C315.014 196.671 312.137 196.866 309.526 196.863C309.8 207.939 310.057 219.578 308.336 230.55C305.501 232.269 303.049 233.322 299.665 232.478C296.358 231.654 293.717 229.563 292.019 226.632C288.622 220.766 289.227 212.481 288.996 205.905Q289.063 201.376 288.987 196.847C287.321 196.85 285.668 196.853 284.006 196.987Q280.948 196.667 277.885 196.4Z"/>
	<path transform="matrix(0.466 0 0 0.466 0 3.05176e-05)" d="M422.612 247.855C427.474 247.376 446.307 247.421 450.699 248.331C451.621 248.522 452.332 248.762 452.824 249.615C453.803 251.311 453.442 254.322 452.921 256.138C450.626 264.132 443.022 262.94 436.472 263.012C435.636 263.021 434.498 262.859 433.783 263.274L433.661 263.896C434.711 266.626 445.426 263.483 448.449 266.415C449.663 267.592 449.773 269.734 449.739 271.335C449.697 273.29 449.118 275.015 447.627 276.338C444.235 279.349 438.015 278.751 433.833 278.563L433.846 281.125C435.081 281.078 436.325 281.114 437.562 281.12C440.765 281.134 447.75 280.612 450.477 281.656C451.705 283.061 452.221 285.788 452.192 287.628C452.157 289.821 451.197 291.788 449.593 293.263C445.197 297.307 433.415 296.742 427.633 296.339C424.449 296.117 420.902 295.363 418.775 292.759C414.725 287.801 416.744 255.927 417.476 248.353C419.183 248.128 420.897 247.998 422.612 247.855Z"/>
	<path transform="matrix(0.466 0 0 0.466 0 3.05176e-05)" d="M179.65 247.857C189.275 247.206 199.396 247.629 209.003 248.382C209.757 251.534 210.316 254.834 208.867 257.899C206.226 263.48 199.334 263.111 194.111 262.971C193.093 262.944 191.734 262.657 190.768 262.985C190.356 263.605 190.366 263.726 190.345 264.478C190.717 265.004 190.777 265.01 191.455 265.083C192.831 265.231 194.293 265.045 195.685 265.052C198.87 265.069 202.075 265.276 205.19 265.949C205.712 267.636 206.251 269.384 206.24 271.164C206.228 273.13 205.607 275.019 204.131 276.372C200.936 279.301 196.171 278.596 192.235 278.545C191.494 278.536 190.996 278.608 190.464 279.127C190.437 279.857 190.264 280.487 190.652 281.121Q192.582 281.108 194.511 281.12L206.809 281.292C208.003 283.184 208.644 284.912 208.623 287.176C208.6 289.556 207.944 291.775 206.128 293.406C201.682 297.399 189.476 296.727 183.758 296.349C181.02 296.168 177.643 295.564 175.801 293.34C174.608 291.901 173.895 290.039 173.531 288.218C171.873 279.919 173.044 257.414 173.91 248.29Q176.783 248.118 179.65 247.857Z"/>
	<path transform="matrix(0.466 0 0 0.466 0 3.05176e-05)" d="M470.179 277.12C466.106 275.522 462.724 273.258 460.399 269.474C458.413 266.241 457.873 262.466 458.833 258.788C459.845 254.913 462.494 251.75 465.909 249.734C471.652 246.343 479.41 245.87 485.776 247.517C488.928 248.333 492.123 249.995 493.758 252.937C494.774 254.764 495.121 257.112 494.476 259.121C493.617 261.799 491.378 263.209 489.043 264.455L488.161 264.677L487.917 265.112C488.093 265.719 488.184 265.805 487.958 266.384C487.402 266.488 486.86 266.585 486.298 266.644C486.774 267.131 487.264 267.471 487.83 267.837C491.683 269.595 494.843 272.427 496.358 276.461C497.748 280.167 497.318 284.287 495.65 287.83C493.879 291.59 490.707 294.337 486.798 295.702C479.448 298.268 469.183 297.783 462.196 294.315C459.859 293.155 457.637 291.485 456.808 288.903C456.135 286.81 456.588 284.72 457.63 282.837C458.514 281.239 459.802 279.859 461.607 279.357C466.959 277.866 474.465 285.596 479.04 281.427C479.174 280.602 479.345 279.884 479.1 279.062C476.805 278.021 472.771 277.693 470.179 277.12ZM487.83 267.837C487.264 267.471 486.774 267.131 486.298 266.644C486.86 266.585 487.402 266.488 487.958 266.384C488.184 265.805 488.093 265.719 487.917 265.112L488.161 264.677L489.043 264.455C485.886 262.025 482.508 260.493 478.423 260.962C477.123 261.111 475.693 261.383 474.851 262.472C474.48 262.952 474.398 263.379 474.333 263.965C474.627 264.707 474.819 264.99 475.571 265.298C477.911 266.258 480.896 266.251 483.4 266.713C484.898 266.989 486.34 267.53 487.83 267.837Z"/>
	<defs>
		<linearGradient id="gradient_0" gradientUnits="userSpaceOnUse" x1="486.01193" y1="264.44455" x2="476.99915" y2="262.504">
			<stop offset="0" stop-color="#AAA9A9" stop-opacity="0.33725491"/>
			<stop offset="1" stop-color="#9A9999" stop-opacity="0.41960785"/>
		</linearGradient>
	</defs>
	<path fill="url(#gradient_0)" transform="matrix(0.466 0 0 0.466 0 3.05176e-05)" d="M487.83 267.837C486.34 267.53 484.898 266.989 483.4 266.713C480.896 266.251 477.911 266.258 475.571 265.298C474.819 264.99 474.627 264.707 474.333 263.965C474.398 263.379 474.48 262.952 474.851 262.472C475.693 261.383 477.123 261.111 478.423 260.962C482.508 260.493 485.886 262.025 489.043 264.455L488.161 264.677L487.917 265.112C488.093 265.719 488.184 265.805 487.958 266.384C487.402 266.488 486.86 266.585 486.298 266.644C486.774 267.131 487.264 267.471 487.83 267.837Z"/>
	<path transform="matrix(0.466 0 0 0.466 0 3.05176e-05)" d="M141.786 246.604C143.815 246.326 146.127 246.407 148.168 246.495C153.741 246.738 160.133 248.11 164.011 252.448C167.213 256.029 168.592 261.178 168.269 265.909C167.953 270.533 166.159 275.216 162.579 278.283C157.305 282.802 151.376 282.779 144.849 282.233C144.885 284.397 144.802 286.562 144.746 288.725Q144.555 292.206 144.289 295.683C141.947 297.185 139.601 298.126 136.766 297.759C133.864 297.383 131.2 295.637 129.483 293.302C128.26 291.638 127.588 289.77 127.191 287.765C125.601 279.734 126.431 259.134 127.664 250.594C132.268 248.145 136.582 247.069 141.786 246.604ZM146.25 262.584C145.45 264.304 145.894 266.675 146.044 268.522C147.767 268.526 149.439 268.588 151.111 268.101C151.662 267.311 152.301 266.238 152.176 265.225C152.079 264.441 151.732 263.869 151.103 263.409C149.531 262.258 148.058 262.418 146.25 262.584Z"/>
	<path fill="#979796" fill-opacity="0.3764706" transform="matrix(0.466 0 0 0.466 0 3.05176e-05)" d="M146.25 262.584C148.058 262.418 149.531 262.258 151.103 263.409C151.732 263.869 152.079 264.441 152.176 265.225C152.301 266.238 151.662 267.311 151.111 268.101C149.439 268.588 147.767 268.526 146.044 268.522C145.894 266.675 145.45 264.304 146.25 262.584Z"/>
	<path transform="matrix(0.466 0 0 0.466 0 3.05176e-05)" d="M229.904 246.855C232.069 246.76 234.193 246.766 236.351 246.99C242.452 247.622 248.174 249.41 252.131 254.355C255.053 258.006 256.507 262.593 255.922 267.259C255.322 272.041 252.469 275.384 248.817 278.246C252.104 281.215 254.81 286.303 256.775 290.233C256.34 292.299 255.621 293.967 253.953 295.371C252.115 296.919 249.65 297.481 247.295 297.182C243.532 296.704 240.87 294.437 238.628 291.564C236.183 288.137 233.824 284.466 231.698 280.832C231.695 284.543 231.559 289.01 230.808 292.635C230.622 293.532 230.489 294.354 229.646 294.861C227.586 296.1 225.04 296.584 222.696 296.047C219.793 295.383 217.424 293.394 215.859 290.914C214.883 289.368 214.334 287.702 214.002 285.913C212.708 278.937 212.603 257.7 214.16 250.898C219.226 248.032 224.213 247.417 229.904 246.855ZM232.949 263.13C232.104 264.446 232.44 266.636 232.503 268.177C234.171 268.121 235.892 268.138 237.523 267.758C238.104 267.108 238.624 266.339 238.53 265.413C238.458 264.701 237.986 264.213 237.415 263.845C235.922 262.884 234.651 262.921 232.949 263.13Z"/>
	<path fill="#979796" fill-opacity="0.031372551" transform="matrix(0.466 0 0 0.466 0 3.05176e-05)" d="M232.949 263.13C234.651 262.921 235.922 262.884 237.415 263.845C237.986 264.213 238.458 264.701 238.53 265.413C238.624 266.339 238.104 267.108 237.523 267.758C235.892 268.138 234.171 268.121 232.503 268.177C232.44 266.636 232.104 264.446 232.949 263.13Z"/>
	<path transform="matrix(0.466 0 0 0.466 0 3.05176e-05)" d="M304.227 249.114C308.217 247.481 312.914 246.82 316.999 248.563C318.866 249.36 320.411 250.737 321.18 252.64C322.498 255.902 321.755 266.248 322.052 270.577C322.689 271.231 322.791 274.451 322.923 275.531C322.906 272.04 322.823 268.218 323.433 264.783L323.535 265.78C325.419 265.645 326.631 263.88 328.688 264.396C328.763 264.415 328.837 264.437 328.911 264.458C329.386 264.249 329.413 264.193 329.696 263.752C329.73 263.261 329.761 262.781 329.848 262.296C330.226 263.62 330.364 265.056 330.579 266.418C330.807 262.943 330.801 259.458 331.016 255.983C330.931 254.138 330.696 252.355 330.409 250.531C334.097 248.456 338.212 247.263 342.425 248.461Q342.892 248.59 343.344 248.766Q343.795 248.942 344.226 249.164Q344.657 249.385 345.063 249.65Q345.469 249.914 345.845 250.219Q346.222 250.524 346.565 250.866Q346.909 251.208 347.215 251.584Q347.521 251.959 347.788 252.364Q348.054 252.769 348.277 253.199C351.385 259.109 350.276 277.327 348.151 283.576C346.398 288.731 342.786 292.49 337.9 294.82C331.172 298.029 321.672 298.217 314.71 295.658Q313.907 295.37 313.138 295.002Q312.368 294.635 311.639 294.193Q310.909 293.751 310.228 293.238Q309.546 292.725 308.919 292.147Q308.292 291.569 307.726 290.931Q307.16 290.293 306.66 289.602Q306.161 288.911 305.733 288.173Q305.304 287.436 304.952 286.659C301.19 278.452 302.399 265.223 303.283 256.367C303.519 254 303.598 251.403 304.227 249.114ZM331.016 255.983C330.801 259.458 330.807 262.943 330.579 266.418C330.364 265.056 330.226 263.62 329.848 262.296C329.761 262.781 329.73 263.261 329.696 263.752C329.413 264.193 329.386 264.249 328.911 264.458C328.837 264.437 328.763 264.415 328.688 264.396C326.631 263.88 325.419 265.645 323.535 265.78L323.433 264.783C322.823 268.218 322.906 272.04 322.923 275.531C322.791 274.451 322.689 271.231 322.052 270.577C322.016 273.793 321.943 278.665 323.351 281.545C324.277 282.486 325.075 283.103 326.441 283.151C327.175 283.177 327.852 282.949 328.528 282.684C328.623 282.565 328.717 282.444 328.814 282.325C328.923 282.191 329.038 282.063 329.142 281.925C331.509 278.782 331.628 260.114 331.016 255.983Z"/>
	<path fill="#ADACAB" fill-opacity="0.1254902" transform="matrix(0.466 0 0 0.466 0 3.05176e-05)" d="M331.016 255.983C331.628 260.114 331.509 278.782 329.142 281.925C329.038 282.063 328.923 282.191 328.814 282.325C328.717 282.444 328.623 282.565 328.528 282.684C327.852 282.949 327.175 283.177 326.441 283.151C325.075 283.103 324.277 282.486 323.351 281.545C321.943 278.665 322.016 273.793 322.052 270.577C322.689 271.231 322.791 274.451 322.923 275.531C322.906 272.04 322.823 268.218 323.433 264.783L323.535 265.78C325.419 265.645 326.631 263.88 328.688 264.396C328.763 264.415 328.837 264.437 328.911 264.458C329.386 264.249 329.413 264.193 329.696 263.752C329.73 263.261 329.761 262.781 329.848 262.296C330.226 263.62 330.364 265.056 330.579 266.418C330.807 262.943 330.801 259.458 331.016 255.983ZM323.007 277.051L323.351 281.545C324.277 282.486 325.075 283.103 326.441 283.151C327.175 283.177 327.852 282.949 328.528 282.684L328.099 281.688C327.65 281.585 327.202 281.472 326.752 281.375C326.363 281.292 325.956 281.241 325.589 281.079C323.896 280.328 323.536 278.648 323.007 277.051Z"/>
	<path fill="#979796" fill-opacity="0.011764706" transform="matrix(0.466 0 0 0.466 0 3.05176e-05)" d="M323.007 277.051C323.536 278.648 323.896 280.328 325.589 281.079C325.956 281.241 326.363 281.292 326.752 281.375C327.202 281.472 327.65 281.585 328.099 281.688L328.528 282.684C327.852 282.949 327.175 283.177 326.441 283.151C325.075 283.103 324.277 282.486 323.351 281.545L323.007 277.051Z"/>
	<path transform="matrix(0.466 0 0 0.466 0 3.05176e-05)" d="M203.961 210.212Q204.417 210.395 204.869 210.589C207.53 211.734 209.509 213.63 210.536 216.37C211.528 219.017 211.482 221.938 210.228 224.492C208.527 227.956 204.725 230.478 201.16 231.709C193.781 234.255 182.912 233.401 175.936 229.936C170.033 227.004 165.96 221.746 163.921 215.54C161.445 208.009 161.603 199.148 165.27 192.029C168.629 185.508 175.177 180.838 182.086 178.675C190.472 176.048 200.121 177.636 207.74 181.854C208.63 182.347 209.145 182.719 209.392 183.738C210.034 186.386 209.35 189.252 207.92 191.514C206.145 194.321 203.592 195.382 200.488 196.05L200.565 196.876C200.941 196.918 201.054 196.854 201.334 197.129C200.744 197.331 199.734 197.087 199.308 197.323C199.492 197.393 199.677 197.47 199.864 197.532L200.013 197.776C199.318 197.957 198.607 197.893 197.896 197.867C197.475 197.851 195.698 197.612 195.446 197.729C194.782 198.038 192.614 201.675 192.177 202.431C190.574 205.202 189.619 208.694 189.998 211.902C190.753 211.95 191.505 212.004 192.258 212.082L191.709 212.108L191.931 212.209L191.696 212.265C190.905 212.459 190.391 212.557 189.928 213.28C189.179 213.452 188.655 213.301 187.928 213.14C187.468 213.038 187.675 213.071 187.178 213.041C187.566 213.399 187.966 213.747 188.325 214.135C188.665 214.265 188.597 214.251 188.929 214.334C194.603 215.762 199.292 213.026 203.961 210.212ZM188.325 214.135C187.966 213.747 187.566 213.399 187.178 213.041C187.675 213.071 187.468 213.038 187.928 213.14C188.655 213.301 189.179 213.452 189.928 213.28C190.391 212.557 190.905 212.459 191.696 212.265L191.931 212.209L191.709 212.108L192.258 212.082C191.505 212.004 190.753 211.95 189.998 211.902C189.619 208.694 190.574 205.202 192.177 202.431C192.614 201.675 194.782 198.038 195.446 197.729C195.698 197.612 197.475 197.851 197.896 197.867C198.607 197.893 199.318 197.957 200.013 197.776L199.864 197.532C199.677 197.47 199.492 197.393 199.308 197.323C199.734 197.087 200.744 197.331 201.334 197.129C201.054 196.854 200.941 196.918 200.565 196.876L200.488 196.05L200.155 196.053C194.895 196.062 189.821 193.201 185.351 197.682C183.32 199.718 182.495 202.549 182.572 205.373C182.642 207.951 183.448 210.58 185.344 212.407C186.198 213.23 187.195 213.789 188.325 214.135Z"/>
	<defs>
		<linearGradient id="gradient_1" gradientUnits="userSpaceOnUse" x1="195.6964" y1="205.20999" x2="184.04079" y2="200.51993">
			<stop offset="0" stop-color="#C5C5C4" stop-opacity="0.10588235"/>
			<stop offset="1" stop-color="#A6A5A4" stop-opacity="0.32549021"/>
		</linearGradient>
	</defs>
	<path fill="url(#gradient_1)" transform="matrix(0.466 0 0 0.466 0 3.05176e-05)" d="M188.325 214.135C187.195 213.789 186.198 213.23 185.344 212.407C183.448 210.58 182.642 207.951 182.572 205.373C182.495 202.549 183.32 199.718 185.351 197.682C189.821 193.201 194.895 196.062 200.155 196.053L200.488 196.05L200.565 196.876C200.941 196.918 201.054 196.854 201.334 197.129C200.744 197.331 199.734 197.087 199.308 197.323C199.492 197.393 199.677 197.47 199.864 197.532L200.013 197.776C199.318 197.957 198.607 197.893 197.896 197.867C197.475 197.851 195.698 197.612 195.446 197.729C194.782 198.038 192.614 201.675 192.177 202.431C190.574 205.202 189.619 208.694 189.998 211.902C190.753 211.95 191.505 212.004 192.258 212.082L191.709 212.108L191.931 212.209L191.696 212.265C190.905 212.459 190.391 212.557 189.928 213.28C189.179 213.452 188.655 213.301 187.928 213.14C187.468 213.038 187.675 213.071 187.178 213.041C187.566 213.399 187.966 213.747 188.325 214.135Z"/>
	<path transform="matrix(0.466 0 0 0.466 0 3.05176e-05)" d="M370.913 195.691C367.649 195.822 357.385 196.496 354.746 195.637C353.39 194.238 352.977 191.323 352.943 189.424C352.889 186.433 353.995 183.25 356.144 181.135Q356.587 180.691 357.09 180.316Q357.593 179.941 358.144 179.642Q358.696 179.343 359.285 179.128Q359.874 178.912 360.488 178.783C364.228 178.003 368.515 178.282 372.329 178.273Q384.019 178.289 395.706 178.546C396.896 180.741 397.701 182.992 397.768 185.516C397.948 192.262 392.848 197.243 388.579 201.816C388.748 202.096 388.921 202.368 389.06 202.665C389.012 202.735 388.959 202.801 388.917 202.874C388.599 203.427 388.408 204.209 388.445 204.846L388.733 205.038L389.406 204.577L389.61 204.778C389.392 205.347 389.198 205.684 388.817 206.16C387.626 207.646 388.762 209.746 387.658 211.531L387.894 211.953C387.117 212.363 386.326 212.701 385.514 213.036C386.192 213.577 388.196 213.487 389.142 213.753C392.409 213.954 395.673 214.226 398.937 214.469C399.652 216.457 400.257 218.273 400.188 220.42C400.084 223.617 398.592 226.746 396.265 228.919C394.965 230.133 393.572 230.952 391.871 231.472C387.197 232.903 375.846 232.415 370.638 232.246C365.908 232.093 360.231 231.534 356.864 227.77C354.764 225.422 354.152 222.235 354.343 219.172C354.941 209.625 364.165 201.591 370.913 195.691ZM388.579 201.816C384.543 205.966 380.406 210.635 375.772 214.11C380.056 213.409 384.806 213.761 389.142 213.753C388.196 213.487 386.192 213.577 385.514 213.036C386.326 212.701 387.117 212.363 387.894 211.953L387.658 211.531C388.762 209.746 387.626 207.646 388.817 206.16C389.198 205.684 389.392 205.347 389.61 204.778L389.406 204.577L388.733 205.038L388.445 204.846C388.408 204.209 388.599 203.427 388.917 202.874C388.959 202.801 389.012 202.735 389.06 202.665C388.921 202.368 388.748 202.096 388.579 201.816Z"/>
	<path fill="#ADACAB" fill-opacity="0.13333334" transform="matrix(0.466 0 0 0.466 0 3.05176e-05)" d="M388.579 201.816C388.748 202.096 388.921 202.368 389.06 202.665C389.012 202.735 388.959 202.801 388.917 202.874C388.599 203.427 388.408 204.209 388.445 204.846L388.733 205.038L389.406 204.577L389.61 204.778C389.392 205.347 389.198 205.684 388.817 206.16C387.626 207.646 388.762 209.746 387.658 211.531L387.894 211.953C387.117 212.363 386.326 212.701 385.514 213.036C386.192 213.577 388.196 213.487 389.142 213.753C384.806 213.761 380.056 213.409 375.772 214.11C380.406 210.635 384.543 205.966 388.579 201.816Z"/>
	<path transform="matrix(0.466 0 0 0.466 0 3.05176e-05)" d="M424.196 177.854C425.949 177.586 427.949 177.765 429.695 178.036C433.958 178.699 438.19 180.624 440.782 184.192C442.262 186.23 443.386 188.448 444.312 190.785C446.228 195.624 454.696 222.605 453.832 226.717C453.491 228.345 451.874 229.683 450.556 230.538C447.757 232.354 444.146 233.356 440.84 232.562C435.743 231.336 434.975 227.917 432.694 224.084L432.062 223.956C428.833 223.895 425.576 224.074 422.356 223.791C421.35 226.399 420.564 229.094 419.728 231.76C416.021 232.938 411.417 233.675 407.812 231.819C405.332 230.542 403.686 228.217 402.862 225.592C402.115 223.214 402.039 220.661 402.283 218.195C403.234 208.572 409.856 188.579 414.346 179.904C417.523 178.742 420.845 178.196 424.196 177.854ZM424.759 208.478C426.77 208.485 428.813 208.419 430.807 208.702C430.402 206.104 429.65 203.509 429.036 200.95L428.889 202.73L428.63 202.843C428.138 202.5 428.065 202.44 427.962 201.805C427.904 201.443 427.939 201.02 427.945 200.652L427.654 200.331C426.613 201.764 426.757 206.961 424.759 208.478ZM427.633 195.007C427.212 196.918 424.301 207.448 424.759 208.478C426.757 206.961 426.613 201.764 427.654 200.331L427.945 200.652C427.939 201.02 427.904 201.443 427.962 201.805C428.065 202.44 428.138 202.5 428.63 202.843L428.889 202.73L429.036 200.95C428.469 198.973 427.976 197.036 427.633 195.007Z"/>
	<path fill="#979796" fill-opacity="0.011764706" transform="matrix(0.466 0 0 0.466 0 3.05176e-05)" d="M427.633 195.007C427.976 197.036 428.469 198.973 429.036 200.95L428.889 202.73L428.63 202.843C428.138 202.5 428.065 202.44 427.962 201.805C427.904 201.443 427.939 201.02 427.945 200.652L427.654 200.331C426.613 201.764 426.757 206.961 424.759 208.478C424.301 207.448 427.212 196.918 427.633 195.007Z"/>
	<path fill="#979796" fill-opacity="0.098039217" transform="matrix(0.466 0 0 0.466 0 3.05176e-05)" d="M424.759 208.478C426.757 206.961 426.613 201.764 427.654 200.331L427.945 200.652C427.939 201.02 427.904 201.443 427.962 201.805C428.065 202.44 428.138 202.5 428.63 202.843L428.889 202.73L429.036 200.95C429.65 203.509 430.402 206.104 430.807 208.702C428.813 208.419 426.77 208.485 424.759 208.478Z"/>
	<path transform="matrix(0.466 0 0 0.466 0 3.05176e-05)" d="M366.255 248.079C368.989 247.674 372.115 248.188 374.447 249.688C376.02 250.699 377.193 252.107 378.079 253.74C380.389 257.998 382.262 268.757 383.414 273.891C385.315 266.486 386.549 257.537 389.247 250.528C390.94 249.659 392.602 248.942 394.485 248.601C397.463 248.061 400.562 248.508 403.058 250.293C405.09 251.747 406.593 253.822 407.468 256.151C408.973 260.16 409.089 265.054 409.57 269.293C410.461 277.153 411.11 285.13 412.393 292.933C410.363 295.204 407.887 296.962 404.745 297.156C402.555 297.292 400.338 296.601 398.694 295.127C395.905 292.626 395.655 289.049 395.518 285.562Q395.291 279.915 395.521 274.268C393.359 280.988 392.015 288.209 390.352 295.085C386.706 296.218 382.626 297.215 379.054 295.248Q378.561 294.976 378.111 294.636Q377.662 294.297 377.265 293.897Q376.868 293.497 376.532 293.045Q376.196 292.593 375.928 292.098C373.898 288.437 372.634 280.109 371.467 275.724C370.826 282.217 370.446 288.725 369.886 295.226C367.292 296.567 363.922 297.402 361.005 296.951C358.98 296.637 357.397 295.613 356.256 293.915C354.924 291.935 354.451 289.51 354.414 287.157C354.325 281.522 355.975 275.45 357.008 269.913L360.568 250.166C362.439 248.994 364.082 248.436 366.255 248.079Z"/>
	<path transform="matrix(0.466 0 0 0.466 0 3.05176e-05)" d="M55.8877 120.351C62.7036 119.638 72.0189 121.216 78.1608 124.356C83.4405 127.056 87.6782 130.88 89.4687 136.671C90.6934 140.632 90.4725 144.512 88.4841 148.191C86.3441 152.15 81.8357 156.014 77.5247 157.328L77.5005 167.024L56.375 166.95L53.2812 166.936L53.2209 160.354C51.4508 160.404 49.7233 160.35 47.9569 160.228C48.158 162.482 48.0404 164.803 48.029 167.067L41.5986 166.957Q41.505 162.409 41.6257 157.862C39.5891 157.064 37.8462 156.009 36.1285 154.654C32.5596 151.838 29.465 147.931 28.9796 143.274C28.4867 138.546 30.0916 133.84 33.0711 130.176C38.4414 123.573 47.7942 121.166 55.8877 120.351Z"/>
	<path fill="#FEFDFE" transform="matrix(0.466 0 0 0.466 0 3.05176e-05)" d="M48.5494 126.796C48.5925 126.827 48.6415 126.852 48.6788 126.889C49.1553 127.372 48.9877 128.876 48.9914 129.529C45.2969 131.374 41.8846 133.731 40.4938 137.835C39.2011 141.649 40.0735 145.95 43.0626 148.734C43.7927 149.414 44.889 150.017 45.335 150.903C44.5211 150.999 43.7758 150.738 42.9962 150.534C42.5435 150.341 42.0899 150.142 41.6571 149.907C39.2058 148.573 37.2763 146.266 36.5218 143.57C35.6356 140.404 36.2084 136.836 37.8418 134.008C40.281 129.784 44.0419 128.073 48.5494 126.796Z"/>
	<path transform="matrix(0.466 0 0 0.466 0 3.05176e-05)" d="M239.482 177.435Q240.17 177.353 240.861 177.305Q241.552 177.256 242.244 177.242Q242.936 177.228 243.629 177.247Q244.321 177.267 245.011 177.321Q245.702 177.374 246.389 177.462Q247.076 177.549 247.758 177.67Q248.44 177.791 249.115 177.946Q249.79 178.1 250.457 178.287Q251.124 178.475 251.781 178.695Q252.437 178.914 253.083 179.166Q253.728 179.418 254.36 179.701Q254.992 179.984 255.609 180.298Q256.227 180.612 256.828 180.956Q257.429 181.299 258.013 181.672Q258.597 182.045 259.161 182.446Q259.726 182.847 260.27 183.275Q260.815 183.703 261.337 184.158Q261.86 184.612 262.36 185.092Q262.859 185.571 263.335 186.075Q263.81 186.578 264.261 187.105Q264.711 187.631 265.135 188.178Q265.559 188.726 265.956 189.294Q266.352 189.862 266.72 190.448Q267.089 191.035 267.427 191.639Q267.766 192.243 268.075 192.863Q268.384 193.483 268.663 194.117Q268.941 194.751 269.187 195.398Q269.434 196.045 269.649 196.704Q269.863 197.362 270.045 198.031Q270.227 198.699 270.377 199.375Q270.526 200.052 270.641 200.734Q270.757 201.417 270.839 202.105Q270.921 202.793 270.969 203.484Q271.017 204.174 271.032 204.867Q271.046 205.559 271.026 206.252Q271.006 206.944 270.953 207.634Q270.899 208.325 270.811 209.012Q270.724 209.699 270.603 210.381Q270.482 211.063 270.327 211.738Q270.173 212.413 269.985 213.08Q269.798 213.746 269.578 214.403Q269.358 215.06 269.106 215.705Q268.854 216.35 268.571 216.982Q268.288 217.614 267.974 218.232Q267.66 218.849 267.317 219.45Q266.973 220.052 266.6 220.635Q266.227 221.219 265.826 221.783Q265.425 222.348 264.997 222.892Q264.568 223.437 264.114 223.959Q263.659 224.482 263.18 224.981Q262.7 225.481 262.197 225.957Q261.693 226.432 261.167 226.882Q260.641 227.333 260.093 227.756Q259.545 228.18 258.977 228.577Q258.409 228.973 257.823 229.342Q257.236 229.71 256.632 230.049Q256.028 230.388 255.408 230.696Q254.789 231.005 254.154 231.283Q253.52 231.561 252.873 231.808Q252.226 232.055 251.567 232.269Q250.909 232.484 250.24 232.666Q249.572 232.848 248.896 232.997Q248.219 233.146 247.537 233.261Q246.854 233.377 246.166 233.459Q245.478 233.541 244.788 233.589Q244.097 233.637 243.404 233.651Q242.712 233.666 242.02 233.646Q241.328 233.626 240.637 233.572Q239.947 233.518 239.26 233.431Q238.573 233.343 237.891 233.222Q237.209 233.101 236.534 232.947Q235.859 232.792 235.193 232.605Q234.526 232.417 233.869 232.197Q233.213 231.978 232.568 231.726Q231.923 231.474 231.291 231.191Q230.659 230.908 230.042 230.594Q229.424 230.28 228.823 229.936Q228.222 229.592 227.638 229.22Q227.055 228.847 226.49 228.446Q225.926 228.045 225.382 227.616Q224.837 227.188 224.315 226.734Q223.792 226.279 223.293 225.8Q222.793 225.32 222.318 224.817Q221.842 224.314 221.392 223.787Q220.942 223.261 220.518 222.714Q220.094 222.166 219.698 221.598Q219.301 221.03 218.933 220.444Q218.565 219.857 218.226 219.254Q217.887 218.65 217.578 218.03Q217.269 217.41 216.991 216.776Q216.713 216.142 216.466 215.495Q216.22 214.848 216.005 214.189Q215.791 213.531 215.609 212.863Q215.426 212.195 215.277 211.518Q215.128 210.842 215.013 210.159Q214.897 209.477 214.815 208.789Q214.733 208.101 214.685 207.411Q214.637 206.72 214.622 206.027Q214.608 205.335 214.628 204.643Q214.647 203.951 214.701 203.26Q214.755 202.57 214.842 201.883Q214.93 201.196 215.051 200.514Q215.172 199.832 215.326 199.157Q215.481 198.482 215.668 197.815Q215.855 197.149 216.075 196.492Q216.295 195.835 216.547 195.19Q216.799 194.545 217.082 193.913Q217.365 193.281 217.679 192.664Q217.992 192.047 218.336 191.445Q218.68 190.844 219.052 190.261Q219.425 189.677 219.826 189.113Q220.227 188.548 220.655 188.004Q221.083 187.459 221.538 186.937Q221.992 186.414 222.472 185.915Q222.951 185.415 223.455 184.939Q223.958 184.464 224.484 184.014Q225.01 183.563 225.558 183.139Q226.105 182.715 226.673 182.319Q227.241 181.922 227.827 181.554Q228.414 181.186 229.018 180.847Q229.621 180.508 230.241 180.199Q230.861 179.89 231.495 179.612Q232.129 179.334 232.776 179.087Q233.423 178.84 234.082 178.626Q234.74 178.411 235.408 178.229Q236.076 178.047 236.753 177.898Q237.429 177.749 238.112 177.633Q238.794 177.517 239.482 177.435ZM242.165 196.543C239.764 197.218 238.056 198.241 236.842 200.497C235.443 203.097 235.353 206.56 236.31 209.32C236.976 211.24 238.237 212.916 240.08 213.835C241.152 214.369 242.311 214.512 243.496 214.511C245.756 213.913 247.198 213.017 248.381 210.939C249.805 208.437 250.065 204.934 249.29 202.169C248.708 200.091 247.435 198.267 245.483 197.28C244.402 196.732 243.362 196.577 242.165 196.543Z"/>
	<path fill="#979796" fill-opacity="0.28627452" transform="matrix(0.466 0 0 0.466 0 3.05176e-05)" d="M242.165 196.543C243.362 196.577 244.402 196.732 245.483 197.28C247.435 198.267 248.708 200.091 249.29 202.169C250.065 204.934 249.805 208.437 248.381 210.939C247.198 213.017 245.756 213.913 243.496 214.511C242.311 214.512 241.152 214.369 240.08 213.835C238.237 212.916 236.976 211.24 236.31 209.32C235.353 206.56 235.443 203.097 236.842 200.497C238.056 198.241 239.764 197.218 242.165 196.543Z"/>
	<path transform="matrix(0.466 0 0 0.466 0 3.05176e-05)" d="M39.0845 170.04C41.8926 170.139 44.6932 170.235 47.4941 170.469C47.4883 175.118 47.7052 179.881 47.4145 184.514L53.2084 184.395C52.7625 179.741 53.2084 175.005 53.0074 170.337L80.3883 170.497C80.3225 175.106 80.7561 179.911 80.3381 184.489C92.3037 184.487 104.336 184.196 116.293 184.533C117.027 185.186 117.846 185.824 118.469 186.585C119.131 196.409 118.694 206.47 118.687 216.317L118.662 269.625L118.672 302.5C118.666 307.11 119.129 314.689 118.223 319.009C116.738 319.786 114.664 319.624 113.008 319.677C102.028 320.029 90.9828 319.817 79.996 319.831Q54.0371 320.034 28.0782 319.809C22.5497 319.768 5.88443 320.425 1.35123 319.162C0.918434 318.206 0.52931 317.176 0 316.273L0 187.481C0.913366 186.107 1.4435 185.308 3.13877 184.989C8.58456 183.968 16.816 184.512 22.5223 184.478C27.9292 184.445 33.6046 184.049 38.9789 184.423C38.7078 179.731 38.7599 174.727 39.0845 170.04ZM61.6588 192.336C61.4532 194.025 61.7133 195.736 61.5604 197.441L65.9722 197.495C65.9564 203.282 66.0248 209.087 65.868 214.871C64.3181 214.926 62.8229 214.984 61.2806 214.776C61.6807 218.58 61.4476 222.582 61.4491 226.409L61.4308 247.929L61.34 272.091C61.3188 276.244 61.5267 280.587 61.1674 284.718C61.0557 286.003 60.8284 287.163 60.0809 288.228L59.5346 288.429C58.5704 287.84 58.2519 287.03 58.0149 285.948C57.1219 281.873 57.6654 271.148 57.647 266.318Q57.3686 240.637 57.7714 214.958C56.1865 214.938 54.5851 214.963 53.0034 214.872C52.9801 209.079 52.8199 203.284 52.9435 197.491L57.7286 197.369C57.6063 195.738 57.5367 194.119 57.5071 192.483L24.8809 192.491C19.5427 192.491 14.071 192.775 8.75013 192.489L8.61838 253.563L8.64253 292.39C8.65722 298.541 9.11245 305.377 8.62323 311.455L110.085 311.509L110.034 192.478L77.3721 192.463C72.4774 192.454 66.4479 192.913 61.6588 192.336Z"/>
	<path transform="matrix(0.466 0 0 0.466 0 3.05176e-05)" d="M15.2619 197.583C21.9669 197.245 28.7791 197.462 35.4951 197.47C39.7847 197.476 44.3704 197.17 48.6269 197.594C49.3282 197.664 49.855 197.692 50.4046 198.174C50.6144 198.837 50.6484 199.032 50.4901 199.703C50.2913 200.546 49.9126 200.848 49.1967 201.284C37.5862 201.365 25.987 201.439 14.4001 200.894C14.2608 200.887 14.1214 200.902 13.982 200.906L13.7821 200.646L14.3122 200.85L13.7703 200.69C13.7334 200.622 13.6921 200.556 13.6596 200.486C13.2857 199.679 13.2742 199.186 13.5766 198.361C14.2102 197.717 14.4025 197.75 15.2619 197.583Z"/>
	<path transform="matrix(0.466 0 0 0.466 0 3.05176e-05)" d="M69.2011 197.6C73.8241 197.389 102.406 196.829 104.98 198.116C105.167 198.426 105.385 198.633 105.362 199.011C105.304 199.997 104.614 200.588 103.913 201.176C97.4315 201.534 90.9076 201.233 84.4197 201.263C80.1066 201.284 75.2924 201.759 71.032 201.217C70.221 201.113 68.919 200.891 68.3442 200.234C67.9788 199.817 67.8758 199.286 68.0149 198.752C68.2086 198.007 68.5776 197.914 69.2011 197.6Z"/>
	<path transform="matrix(0.466 0 0 0.466 0 3.05176e-05)" d="M93.1996 248.446C93.6797 248.441 94.285 248.382 94.7507 248.482C95.4292 248.627 95.53 248.833 95.8823 249.365C96.2379 252.776 96.0205 256.365 96.0217 259.795L96.0279 278.176C96.0279 281.021 96.4266 287.711 95.975 290.111C95.8581 290.732 95.5272 291.136 95.1451 291.618C94.7542 291.664 94.2599 291.767 93.872 291.724C93.585 291.692 93.236 291.619 93.0741 291.355C92.3702 290.205 92.5244 257.63 92.6824 253.263C92.7416 251.627 92.8949 250.054 93.1996 248.446Z"/>
	<path transform="matrix(0.466 0 0 0.466 0 3.05176e-05)" d="M23.6578 248.365C24.1166 248.421 24.6409 248.476 25.0768 248.627C25.6632 248.831 26.0086 249.206 26.2039 249.791C26.9771 252.108 26.3465 285.215 26.038 288.998C25.9543 290.024 25.8327 290.929 25.3355 291.852C24.7931 291.776 24.2733 291.66 23.7397 291.54C23.3523 291.173 23.2743 291.19 23.1395 290.636C22.1713 286.652 22.5663 274.709 22.5514 270.186C22.5315 264.19 22.0206 256.461 22.8243 250.603C22.9435 249.735 23.1969 249.106 23.6578 248.365ZM23.75 275.673C23.6641 280.047 23.5146 284.249 23.7946 288.628L24.1066 288.863C24.1467 285.628 24.3962 278.536 23.75 275.673Z"/>
	<path transform="matrix(0.466 0 0 0.466 0 3.05176e-05)" d="M23.75 275.673C24.3962 278.536 24.1467 285.628 24.1066 288.863L23.7946 288.628C23.5146 284.249 23.6641 280.047 23.75 275.673Z"/>
	<path transform="matrix(0.466 0 0 0.466 0 3.05176e-05)" d="M31.9907 304.876L79.744 304.871C86.3758 304.899 93.071 304.623 99.6922 304.943C100.058 305.221 100.563 305.539 100.851 305.893C101.289 306.431 101.242 306.631 101.153 307.257C99.3873 308.973 90.159 308.342 87.375 308.339L40.6918 308.311C36.6229 308.303 21.2643 308.765 18.8195 307.875C18.1881 307.645 17.7164 307.36 17.4249 306.737L17.6218 306.249C19.8922 304.328 28.7952 304.912 31.9907 304.876Z"/>
	<path transform="matrix(0.466 0 0 0.466 0 3.05176e-05)" d="M98.3524 290.322C98.0579 282.23 98.2888 274.031 98.2938 265.929C98.3042 249.032 97.6414 231.932 102.549 215.562C103.002 214.048 103.887 210.502 105.342 209.72C105.391 209.776 105.448 209.826 105.489 209.888C106.235 211.011 105.716 213.604 105.609 214.905C105.272 220.073 105.383 225.36 105.329 230.544L105.205 263.795L105.112 281.027C105.089 285.051 105.568 289.88 104.492 293.765C104.068 295.297 103.306 296.559 102.149 297.655C100.505 299.21 98.3735 300.08 96.1521 300.394C92.5717 300.9 88.736 300.729 85.1235 300.729L69.0133 300.704L40.9225 300.599C35.4372 300.589 29.8713 300.774 24.3946 300.533C21.0414 300.385 18.5617 299.58 16.2969 296.979C15.0839 295.587 14.2695 294.169 14.0536 292.319C13.4898 287.486 13.9952 281.348 13.9538 276.362L13.721 237.473C13.6787 230.996 13.6473 224.492 13.4088 218.021C13.3043 215.183 12.7033 212.127 12.8974 209.314C13.1182 209.375 13.4226 209.431 13.6286 209.568C15.2222 210.629 16.238 214.658 16.7592 216.381C19.9899 227.061 20.3882 238.425 20.704 249.487Q21.0279 262.428 21.0435 275.374C21.0557 279.205 20.3998 287.876 21.3547 291.271C21.8035 292.866 23.5136 294.042 24.9136 294.791C25.6902 295.207 26.8363 295.184 27.7131 295.219C37.4379 295.609 47.261 295.253 56.9996 295.294Q68.7136 295.395 80.4278 295.317C84.0643 295.304 90.3046 295.827 93.662 294.856C96.0798 294.157 97.2527 292.436 98.3524 290.322Z"/>
</svg>
